<?xml version="1.0" encoding="utf-8"?>
<!-- Generator: Adobe Illustrator 19.1.0, SVG Export Plug-In . SVG Version: 6.00 Build 0)  -->
<svg version="1.0" id="Layer_1" xmlns="http://www.w3.org/2000/svg" xmlns:xlink="http://www.w3.org/1999/xlink" x="0px" y="0px"
	 viewBox="0 0 28.51 35.42" style="enable-background:new 0 0 28.51 35.42;" xml:space="preserve">
<style type="text/css">
	.st0{fill:#D33354;}
</style>
<path class="st0" d="M22.87,0H5.64C2.53,0,0,2.53,0,5.64v22.48c0,1.56,1.26,2.82,2.82,2.82h0.43v2.24c0,1.24,1,2.24,2.24,2.24
	c1.24,0,2.24-1.01,2.24-2.24v-2.24h13.04v2.24c0,1.24,1,2.24,2.24,2.24c1.24,0,2.24-1.01,2.24-2.24v-2.24h0.43
	c1.56,0,2.82-1.26,2.82-2.82V5.64C28.51,2.53,25.98,0,22.87,0z M9.12,2.06c0-0.57,0.46-1.03,1.03-1.03h8.22
	c0.57,0,1.03,0.46,1.03,1.03V2.2c0,0.57-0.46,1.03-1.03,1.03h-8.22c-0.57,0-1.03-0.46-1.03-1.03V2.06z M5.06,26.11
	c-1.39,0-2.51-1.13-2.51-2.51c0-1.39,1.13-2.51,2.51-2.51c1.39,0,2.51,1.13,2.51,2.51C7.57,24.99,6.45,26.11,5.06,26.11z
	 M18.69,25.28H9.82c-0.32,0-0.59-0.26-0.59-0.59c0-0.32,0.26-0.58,0.59-0.58h8.87c0.32,0,0.59,0.26,0.59,0.58
	C19.28,25.02,19.01,25.28,18.69,25.28z M18.69,22.97H9.82c-0.32,0-0.59-0.26-0.59-0.59c0-0.32,0.26-0.59,0.59-0.59h8.87
	c0.32,0,0.59,0.26,0.59,0.59C19.28,22.71,19.01,22.97,18.69,22.97z M23.45,26.11c-1.39,0-2.51-1.13-2.51-2.51
	c0-1.39,1.13-2.51,2.51-2.51s2.51,1.13,2.51,2.51C25.97,24.99,24.84,26.11,23.45,26.11z M26.25,13.08c0,1.25-1.01,2.26-2.26,2.26
	H4.51c-1.25,0-2.26-1.01-2.26-2.26V7.7c0-1.87,1.52-3.38,3.38-3.38h17.23c1.87,0,3.38,1.52,3.38,3.38V13.08z"/>
</svg>
