<?xml version="1.0"?><svg width="640" height="480" xmlns="http://www.w3.org/2000/svg">
 <title>Bus Stop (Yello)</title>

 <metadata id="metadata18081">image/svg+xmlPublic Domainclker.comMohamed Ibrahimmap symbolsmap symbolsimage/svg+xmlMap SymbolsMohamed IbrahimPublic Domain Licenseclker.commap symbols</metadata>
 <g>
  <title>Layer 1</title>
  <path fill="#ff0800" fill-rule="nonzero" id="path6762" d="m456.796631,402.139099c25.631622,0 46.38855,-20.877136 46.38855,-46.706177l0,-297.984623c0,-25.829029 -20.756927,-46.785399 -46.38855,-46.785399l-295.707581,0c-25.631653,0 -46.427902,20.95637 -46.427902,46.785399l0,297.984623c0,25.829041 20.796249,46.706177 46.427902,46.706177l295.707581,0z"/>
  <path fill="#ffffff" fill-rule="nonzero" id="path6764" d="m436.923096,84.483307c-3.729309,-18.550964 -15.58667,-25.961796 -33.420471,-33.372616c-17.833801,-7.458652 -59.573517,-16.303841 -90.698975,-16.303841c-31.173309,0 -72.912994,8.845188 -90.746796,16.303841c-17.833801,7.410828 -29.691132,14.821651 -33.420471,33.372616l-13.387299,102.891022l0,141.761963l23.093109,0l0,22.232483c0,27.061523 39.683777,27.061523 39.683777,0l0,-22.232483l149.603149,0l0,22.232483c0,27.061523 39.588165,27.061523 39.588165,0l0,-22.232483l23.045288,0l0,-141.761963l-13.339478,-102.891022zm-186.370422,-26.965847l124.406311,0c12.239838,0 12.239838,23.188717 0,23.188717l-124.406311,0c-12.192017,0 -12.192017,-23.188717 0,-23.188717m-32.416412,229.066341c-11.522644,0 -20.893738,-9.323303 -20.893738,-20.941559c0,-11.522644 9.371094,-20.893768 20.893738,-20.893768c11.570465,0 20.941589,9.371124 20.941589,20.893768c0,11.618256 -9.371124,20.941559 -20.941589,20.941559m189.286926,0c-11.570465,0 -20.98938,-9.323303 -20.98938,-20.941559c0,-11.522644 9.418915,-20.893768 20.98938,-20.893768c11.474823,0 20.845978,9.371124 20.845978,20.893768c0,11.618256 -9.371155,20.941559 -20.845978,20.941559m8.223633,-88.356201l-205.447296,0c-5.976501,0 -10.948914,-4.972443 -10.948914,-10.948914c0,-1.004059 0.191254,-1.960297 0.382477,-2.868713l10.948914,-81.136604c0.908417,-5.068039 5.40274,-8.98864 10.709839,-8.98864l183.214844,0c5.307098,0 9.801392,3.920601 10.757629,8.98864l10.901093,81.136604c0.191284,0.908447 0.382507,1.864655 0.382507,2.868713c0,5.976471 -4.924622,10.948914 -10.901093,10.948914"/>
 </g>
</svg>